PathFileType	4	(X/Y/Z)	C:\Users\Basilio\Documents\Thesis Gigler\squatting_fais\c3dfiles\019\SLS_front_pre2\markers_experimental.trc
DataRate	CameraRate	NumFrames	NumMarkers	Units	OrigDataRate	OrigDataStartFrame	OrigNumFrames
200.000000	200.000000	4	59	mm	200.000000	1257	1677
Frame#	Time	FHD			LBHD			RBHD			C7			T10			CLAV			LSHO			LUUPA			LMUPA			LDUPA			LLEP			LMEP			LRAD			LUL			LRFIN			RSHO			RUPA1			RMUPA			RDUPA			RLEP			RMEP			RRAD			RUL			RUFIN			LASI			RASI			USACR			LSACR			RSACR			LTHI1			LTHI2			LTHI3			LTHI4			LLFC			LTIB1			LTIB2			LTIB3			LTIB4			LLMAL			LMMAL			LHEE			LMT1			LMT2			LMT5			RTHI2			RTHI3			RTHI4			RLFC			RTIB1			RTIB2			RTIB3			RTIB4			RLMAL			RMMAL			RHEE			RMT1			RMT2			RMT5			RTHI			
		X1	Y1	Z1	X2	Y2	Z2	X3	Y3	Z3	X4	Y4	Z4	X5	Y5	Z5	X6	Y6	Z6	X7	Y7	Z7	X8	Y8	Z8	X9	Y9	Z9	X10	Y10	Z10	X11	Y11	Z11	X12	Y12	Z12	X13	Y13	Z13	X14	Y14	Z14	X15	Y15	Z15	X16	Y16	Z16	X17	Y17	Z17	X18	Y18	Z18	X19	Y19	Z19	X20	Y20	Z20	X21	Y21	Z21	X22	Y22	Z22	X23	Y23	Z23	X24	Y24	Z24	X25	Y25	Z25	X26	Y26	Z26	X27	Y27	Z27	X28	Y28	Z28	X29	Y29	Z29	X30	Y30	Z30	X31	Y31	Z31	X32	Y32	Z32	X33	Y33	Z33	X34	Y34	Z34	X35	Y35	Z35	X36	Y36	Z36	X37	Y37	Z37	X38	Y38	Z38	X39	Y39	Z39	X40	Y40	Z40	X41	Y41	Z41	X42	Y42	Z42	X43	Y43	Z43	X44	Y44	Z44	X45	Y45	Z45	X46	Y46	Z46	X47	Y47	Z47	X48	Y48	Z48	X49	Y49	Z49	X50	Y50	Z50	X51	Y51	Z51	X52	Y52	Z52	X53	Y53	Z53	X54	Y54	Z54	X55	Y55	Z55	X56	Y56	Z56	X57	Y57	Z57	X58	Y58	Z58	X59	Y59	Z59	

1258	6.285	-315.5048522949219	1716.981567382813	-627.3814697265626	-440.9412231445314	1689.851928710938	-773.8105468750002	-447.9302368164064	1681.001831054688	-634.1427612304689	-475.9844665527345	1512.396606445313	-696.5068359375001	-518.7581176757814	1223.801147460938	-694.1681518554689	-338.2977600097657	1469.3935546875	-704.2833862304689	-406.2322692871095	1520.90673828125	-832.3109130859377	-284.3521728515626	1492.419799804688	-893.1986083984377	-258.2214965820313	1482.337768554688	-853.296569824219	-217.3415985107422	1487.220825195313	-896.9172973632815	-149.576889038086	1458.384155273438	-936.009460449219	-152.9270629882813	1399.245239257813	-926.065612792969	102.3924865722657	1444.655639648438	-855.8576660156252	96.40052795410159	1451.741455078125	-923.6848754882815	173.0540924072266	1460.092041015625	-854.2205810546877	-391.6309509277345	1522.445068359375	-583.0638427734376	-275.2805175781251	1452.748413085938	-480.9241333007814	-247.3858642578126	1480.888916015625	-512.5130615234376	-207.0404052734376	1449.119018554688	-480.1968688964845	-130.9118804931641	1439.4599609375	-487.2973937988282	-141.0220947265625	1384.16259765625	-503.056365966797	110.0009078979492	1448.478637695313	-565.1113281250001	119.2296371459961	1451.67333984375	-499.7664489746095	196.8845672607422	1463.51171875	-562.1733398437501	-386.351043701172	1040.102783203125	-827.987243652344	-362.8669128417969	999.8114013671877	-625.4293823242189	-531.3261108398439	1086.901000976563	-701.9630126953126	-540.9624023437501	1058.408935546875	-733.4686889648439	-531.2786865234376	1052.315673828125	-676.8808593750001	-292.7145996093751	883.2403564453127	-932.793884277344	-207.2889251708985	883.5238037109377	-933.3399047851565	-188.5330505371094	922.685485839844	-913.2754516601565	-169.8745727539063	834.8642578125002	-932.1284790039065	-97.31814575195315	778.5532836914065	-915.113220214844	-22.56271553039551	655.4492187500001	-887.2926025390627	-81.60949707031251	607.3967285156251	-933.0161132812502	-43.08643341064454	606.8688354492189	-912.5676269531252	-39.85905456542969	528.4894409179689	-874.151306152344	-106.4804840087891	398.7295532226564	-889.008972167969	-78.32812500000001	409.2394104003907	-808.6535644531252	-170.9616088867188	379.9895629882813	-829.7136840820315	34.95190429687501	316.6625671386719	-824.489196777344	35.23535919189454	311.3067626953126	-863.6580810546877	-17.23514747619629	290.3644409179688	-907.0498046875002	-341.1102905273438	751.7492065429689	-576.4015502929689	-314.9995117187501	760.5922241210939	-597.7551879882814	-352.9674377441407	668.4508056640626	-582.5474243164064	-363.3540649414063	510.280975341797	-627.1819458007814	-313.4838256835938	338.4436950683594	-700.4176025390626	-365.4533386230469	252.1146392822266	-652.9778442382814	-331.2106628417969	254.0788726806641	-684.4337768554689	-338.7802734375001	216.6625671386719	-729.9761352539064	-395.2671813964845	125.4098892211914	-693.6193237304689	-379.4981079101563	137.8723602294922	-768.3709716796877	-456.2357177734376	105.8050842285157	-748.8066406250001	-257.9026794433594	59.76041793823244	-774.063171386719	-253.6068572998047	61.80745697021486	-728.5430297851564	-293.0674743652344	48.87112426757814	-674.3378906250001	-389.7129211425782	792.6209716796877	-566.1171875000001	
1259	6.29	-316.4216613769532	1717.422607421875	-627.8734741210939	-442.2436828613282	1690.297607421875	-774.1482543945315	-448.7107849121095	1681.2587890625	-634.3556518554689	-476.7156982421876	1512.586791992188	-696.6334228515626	-518.4354858398439	1223.648071289063	-694.0562744140626	-338.8285522460938	1469.896118164063	-704.4396972656251	-406.9947509765626	1521.099853515625	-832.557800292969	-285.0178222656251	1492.66748046875	-893.3338012695315	-259.0239562988282	1482.691284179688	-853.4487304687502	-218.0418090820313	1487.580200195313	-897.1029052734377	-150.198471069336	1458.83349609375	-936.106872558594	-153.4608612060547	1399.709106445313	-926.1555175781252	101.7841339111328	1445.1552734375	-856.2097167968752	95.76870727539064	1452.466796875	-923.7300415039065	172.2898406982422	1461.107177734375	-854.3317871093752	-392.3690490722657	1522.699340820313	-583.0154418945314	-275.9334106445313	1452.91162109375	-481.1872558593751	-248.0724487304688	1480.9833984375	-512.6388549804689	-207.6600189208985	1449.281616210938	-480.368377685547	-131.5590515136719	1439.723999023438	-487.4451904296876	-141.6481323242188	1384.452758789063	-503.2825317382814	109.4255065917969	1448.767944335938	-565.3980102539064	118.4885940551758	1451.97314453125	-500.0079650878907	196.2395935058594	1463.87890625	-562.3879394531251	-385.3956298828126	1040.390380859375	-827.8897705078127	-361.7797851562501	999.9711914062502	-625.3457031250001	-530.7495727539064	1086.744873046875	-701.8993530273439	-540.1924438476564	1058.353759765625	-733.3440551757814	-530.4644775390626	1052.155151367188	-676.8944702148439	-291.5790100097657	883.4949340820315	-932.7486572265627	-206.2048339843751	883.8402099609377	-933.3235473632815	-187.5143737792969	922.995300292969	-913.1836547851565	-168.7181396484375	835.1148071289065	-932.138854980469	-96.25604248046878	778.7080078125002	-915.0615234375002	-21.90773963928223	655.3292236328126	-887.3563232421877	-81.1091995239258	607.5794067382814	-933.3024902343752	-42.62440872192384	606.9899291992189	-912.4490356445315	-39.59729766845704	528.4065551757814	-874.3152465820315	-106.7016983032227	398.9580993652345	-889.4144287109377	-78.68819427490236	409.4312438964845	-808.9667968750002	-171.0504608154297	380.3061828613282	-830.0664062500002	34.11901473999024	316.1851196289063	-824.9216918945315	34.69188690185548	310.9592590332032	-864.0215454101565	-17.96022033691407	290.2868041992188	-907.4395141601565	-340.5011291503907	751.7888793945314	-576.6044311523439	-314.1481323242188	760.3333129882814	-597.8016967773439	-352.6165466308594	668.4779052734376	-582.8197631835939	-363.5732727050782	510.4667358398439	-627.3842773437501	-313.7006225585938	338.4808349609376	-700.7724609375001	-365.4461364746094	252.1575775146485	-653.1239624023439	-331.1891784667969	254.0860137939454	-684.7113037109376	-338.8676452636719	216.6883087158204	-730.1287841796876	-395.2462768554689	125.4543533325196	-693.7510986328126	-379.5462341308594	137.7772369384766	-768.5402832031252	-456.1323242187501	105.765121459961	-748.8466186523439	-257.9752197265626	59.64862442016603	-774.1212158203127	-253.5629577636719	61.70450592041017	-728.6338500976564	-293.1477966308594	48.90481185913087	-674.3773803710939	-388.8951110839845	792.9165039062502	-566.2172851562501	
1260	6.295	-317.2665405273438	1717.716430664063	-627.8881225585939	-443.2319946289064	1690.581298828125	-774.2508544921877	-449.355926513672	1681.21484375	-634.7127685546876	-477.441619873047	1512.670532226563	-696.8095703125001	-518.2095336914064	1223.503540039063	-694.0350952148439	-339.4657287597657	1470.223388671875	-704.6285400390626	-407.8528747558595	1521.257690429688	-832.8331298828127	-285.7884521484376	1492.897705078125	-893.5667114257815	-259.6814575195313	1483.012329101563	-853.6561279296877	-218.8230590820313	1487.8671875	-897.3193969726565	-150.803939819336	1459.14990234375	-936.2252197265627	-154.0004119873047	1400.055541992188	-926.2135009765627	100.8650970458985	1446.159912109375	-855.9014282226565	95.23677062988283	1453.154296875	-923.6676025390627	171.6444702148438	1462.06103515625	-854.501892089844	-392.8558959960939	1522.948364257813	-583.0581054687501	-276.4326477050782	1452.81787109375	-481.2447204589845	-248.7711791992188	1481.09228515625	-512.7221069335939	-208.3295593261719	1449.381225585938	-480.5638427734376	-132.1718902587891	1439.758911132813	-487.8944091796876	-142.223876953125	1384.52734375	-503.7096557617189	108.9091720581055	1449.106567382813	-565.5520629882814	117.8170394897461	1452.2607421875	-500.2292480468751	195.513656616211	1464.151611328125	-562.7537231445314	-384.4483642578126	1040.678833007813	-827.8487548828127	-360.7031860351563	1000.294616699219	-625.2423706054689	-530.1005249023439	1086.5322265625	-701.8607177734376	-539.3245849609376	1058.151733398438	-733.3365478515626	-529.8316650390626	1052.47509765625	-676.8524780273439	-290.4514160156251	883.6978759765627	-932.7158203125002	-205.1277008056641	884.1082763671877	-933.2199707031252	-186.3230438232422	923.0531005859377	-913.014099121094	-167.6389770507813	835.2639770507815	-932.2227172851565	-95.45631408691408	778.8657836914065	-915.160339355469	-21.37882423400879	655.2628784179689	-887.4465332031252	-80.57786560058595	607.6214599609376	-933.5070800781252	-42.24639892578126	606.9863891601564	-912.5549926757815	-39.47203063964844	528.3886718750001	-874.5756835937502	-106.9796295166016	399.1239624023439	-889.820495605469	-78.97081756591798	409.4927673339845	-809.331481933594	-171.3946228027344	380.7863769531251	-830.4609375000002	33.47751998901368	315.6936645507813	-825.3379516601565	34.0199089050293	310.5275878906251	-864.4170532226565	-18.65147972106934	290.0485229492188	-907.9569091796877	-339.8719482421876	751.9181518554689	-576.7986450195314	-313.4364624023438	760.2722778320314	-598.0675048828126	-352.2083435058594	668.6015625000001	-582.9563598632814	-363.7205200195313	510.3066711425782	-627.5669555664064	-313.9671630859376	338.5563659667969	-701.0479736328126	-365.3133544921876	252.1579589843751	-653.3385009765626	-331.2569274902344	254.1892547607422	-685.0335693359376	-338.9684448242188	216.7064361572266	-730.5606079101564	-395.2392578125001	125.4500198364258	-693.9089355468751	-379.4209899902344	137.7323150634766	-768.451354980469	-456.1250610351564	105.7647399902344	-748.8970947265626	-258.0606079101563	59.41492843627931	-774.1450805664065	-253.6269531250001	61.62343978881837	-728.6735839843751	-293.1475524902344	48.95179748535158	-674.3756103515626	-388.053680419922	793.0906982421877	-566.1846313476564	
1261	6.3	-318.1415405273438	1718.189208984375	-628.3441772460939	-443.9703369140626	1690.738647460938	-774.3738403320315	-450.2440185546876	1681.370483398438	-634.9340209960939	-477.9507446289064	1512.770751953125	-696.9675292968751	-518.0588989257814	1223.342407226563	-694.0029907226564	-340.0188598632813	1470.469604492188	-704.8147583007814	-408.5174560546876	1521.314453125	-833.003601074219	-286.4349060058594	1493.139038085938	-893.783630371094	-260.3167724609376	1483.270141601563	-853.8406372070315	-219.5405273437501	1488.199096679688	-897.5355224609377	-151.4618225097657	1459.48583984375	-936.3803710937502	-154.4301452636719	1400.361938476563	-926.2060546875002	100.2728576660157	1446.840454101563	-855.955749511719	94.76406097412111	1453.864379882813	-923.6274414062502	171.1663818359375	1462.880615234375	-854.4227294921877	-393.5160217285157	1522.9501953125	-583.0146484375001	-277.0278015136719	1452.881713867188	-481.5156250000001	-249.3599853515626	1481.200439453125	-512.7073974609376	-208.9447937011719	1449.454833984375	-480.7388916015626	-132.7294311523438	1439.93017578125	-487.9741821289064	-142.9679870605469	1384.807495117188	-503.7748107910157	107.4326705932617	1449.593139648438	-565.1597900390626	117.2134704589844	1452.599853515625	-500.4190063476564	195.0560607910157	1464.479858398438	-562.8618164062501	-383.5397338867188	1040.907592773438	-827.7583007812502	-359.9039916992188	1000.588012695313	-625.1240234375001	-529.4412841796876	1086.286743164063	-701.8773803710939	-538.5748901367189	1057.986328125	-733.2791748046876	-528.9931640625001	1051.974731445313	-676.8827514648439	-289.3846740722657	883.8581542968752	-932.6842041015627	-203.8760375976563	884.1016845703127	-933.1194458007815	-185.1698150634766	923.1209716796877	-912.800231933594	-166.4968719482422	835.347106933594	-932.2034912109377	-94.44564819335939	778.9101562500002	-915.2241821289065	-20.96427536010743	655.2048339843751	-887.592712402344	-80.11242675781251	607.6219482421876	-933.6109619140627	-41.79889678955079	606.8261718750001	-912.7781982421877	-39.25260925292969	528.2336425781251	-874.7985839843752	-107.1662368774414	399.2770385742189	-890.1692504882815	-79.20738220214845	409.4910888671876	-809.6404418945315	-171.9368743896485	381.3677978515626	-830.864685058594	32.92494583129884	315.2614746093751	-825.706237792969	33.42816162109376	310.1501770019532	-864.7454223632815	-18.93232536315918	289.6321716308594	-908.1746826171877	-339.1166992187501	751.9061279296876	-576.9337768554689	-312.7962036132813	760.2433471679689	-598.3731689453126	-351.7722778320313	668.6567993164064	-583.1614379882814	-363.8017272949219	510.3836364746095	-627.6840209960939	-314.0878295898438	338.5885620117188	-701.3590087890626	-365.2561950683594	252.1184844970704	-653.5407714843751	-331.2152404785157	254.2271118164063	-685.2877197265626	-339.0355529785157	216.6895141601563	-730.7464599609376	-395.1691284179689	125.4455642700196	-694.1182250976564	-379.4151000976563	137.5989074707032	-768.5032348632815	-456.2505187988282	105.7611465454102	-748.9378662109376	-257.9705810546876	59.20599746704103	-774.1693115234377	-253.5921173095704	61.5887908935547	-728.7340087890626	-293.1258239746094	48.9455032348633	-674.3587646484376	-387.2024841308595	793.2288818359377	-566.2655639648439	
